<svg width="32" height="32" viewBox="0 0 32 32" fill="none" xmlns="http://www.w3.org/2000/svg">
<path d="M15.7539 1.7554C15.8156 1.75544 15.8773 1.75548 15.9409 1.75552C24.1738 1.76915 24.1738 1.76915 26.1875 3.34515C26.4177 3.6097 26.4487 3.85132 26.478 4.19543C26.4815 4.23661 26.4851 4.27779 26.4888 4.32022C26.5005 4.45639 26.512 4.59258 26.5234 4.72878C26.5315 4.82367 26.5397 4.91857 26.5479 5.01347C26.5694 5.26355 26.5907 5.51366 26.6119 5.76378C26.6458 6.1632 26.68 6.5626 26.7144 6.96199C26.7263 7.10108 26.7381 7.24019 26.7498 7.37931C26.7572 7.46545 26.7645 7.55159 26.7719 7.63774C26.7783 7.71243 26.7846 7.78712 26.7911 7.86408C26.813 8.0841 26.8425 8.30204 26.875 8.52069C27.0634 8.57524 27.2518 8.62975 27.4402 8.68421C27.6004 8.73053 27.7606 8.77692 27.9208 8.82339C28.2726 8.9253 28.6244 9.02663 28.9785 9.12054C29.0292 9.13411 29.0798 9.14769 29.1321 9.16167C29.2231 9.18584 29.3143 9.20946 29.4057 9.2324C29.8651 9.35509 30.1605 9.58692 30.4375 9.97237C30.6385 10.3582 30.6735 10.7254 30.7094 11.1563C30.7159 11.2282 30.7225 11.3001 30.7292 11.3741C30.7429 11.5263 30.7562 11.6786 30.7692 11.8309C30.7887 12.0593 30.8093 12.2877 30.83 12.516C30.869 12.9513 30.9045 13.3867 30.9375 13.8225C30.9426 13.8888 30.9477 13.9552 30.9529 14.0235C30.9665 14.2074 30.9784 14.3914 30.9897 14.5754C30.9937 14.6292 30.9977 14.683 31.0018 14.7384C31.0178 15.0383 31.005 15.2183 30.8125 15.4635C30.5509 15.7393 30.3052 15.7699 29.9453 15.8027C29.8967 15.8087 29.8481 15.8146 29.798 15.8207C29.4845 15.8532 29.2324 15.8459 28.9375 15.716C28.6677 15.4429 28.5842 15.271 28.5493 14.8779C28.5429 14.8125 28.5429 14.8125 28.5364 14.7458C28.5275 14.6533 28.5193 14.5609 28.5116 14.4683C28.5001 14.3292 28.4869 14.1904 28.4733 14.0515C28.4509 13.8206 28.4302 13.5897 28.4104 13.3586C28.3982 13.217 28.3856 13.0754 28.373 12.9338C28.365 12.842 28.357 12.7503 28.3491 12.6585C28.342 12.5773 28.335 12.4962 28.3277 12.4126C28.2811 11.706 28.2811 11.706 28.5 11.424C28.7421 11.1896 28.9051 11.1378 29.2382 11.1242C29.3108 11.1207 29.3834 11.1171 29.4582 11.1134C29.5407 11.111 29.5407 11.111 29.625 11.1085C29.6089 11.0176 29.5918 10.9269 29.5742 10.8363C29.5647 10.7857 29.5553 10.7352 29.5456 10.6832C29.4917 10.5145 29.4553 10.4541 29.3125 10.3511C29.1133 10.281 29.1133 10.281 28.8789 10.2288C28.8359 10.2184 28.7929 10.208 28.7486 10.1973C28.3238 10.0966 27.8958 10.0112 27.4673 9.92862C27.4163 9.91873 27.3654 9.90884 27.3129 9.89865C27.2676 9.89001 27.2222 9.88137 27.1755 9.87247C27.0625 9.84613 27.0625 9.84613 26.9375 9.78302C26.9412 9.82468 26.9449 9.86634 26.9488 9.90926C27.195 12.6509 27.4325 15.3931 27.661 18.1363C27.7112 18.7385 27.7617 19.3408 27.8125 19.943C27.8492 20.3772 27.8855 20.8115 27.9216 21.2458C27.9429 21.5013 27.9642 21.7568 27.9859 22.0122C28.0061 22.2495 28.0259 22.4868 28.0454 22.7242C28.0558 22.8505 28.0667 22.9769 28.0776 23.1032C28.1789 24.3505 28.1237 25.1899 27.3125 26.1933C26.4827 27.155 26.4827 27.155 25.9375 27.3294C25.7604 27.3398 25.7604 27.3398 25.5766 27.336C25.5153 27.3351 25.4539 27.3341 25.3907 27.3331C25.3443 27.3319 25.2978 27.3306 25.25 27.3294C25.2506 27.3811 25.2506 27.3811 25.2512 27.4338C25.2554 27.7942 25.2582 28.1547 25.2603 28.5151C25.2612 28.6494 25.2625 28.7837 25.2641 28.918C25.2664 29.1117 25.2674 29.3053 25.2683 29.499C25.2692 29.5585 25.2702 29.618 25.2712 29.6794C25.2713 30.0554 25.2212 30.3327 25.0625 30.6745C24.8048 30.928 24.5648 31.0678 24.2041 31.0726C24.1165 31.0741 24.1165 31.0741 24.0271 31.0756C23.9329 31.0761 23.9329 31.0761 23.8369 31.0767C23.7718 31.0772 23.7068 31.0778 23.6397 31.0784C23.5021 31.0793 23.3645 31.0799 23.2268 31.0801C23.0172 31.0808 22.8077 31.0839 22.5981 31.0871C22.4641 31.0877 22.3302 31.0882 22.1962 31.0885C22.134 31.0897 22.0717 31.091 22.0076 31.0922C21.6048 31.0896 21.2997 31.024 21 30.7377C20.4202 29.762 20.8125 28.4672 20.8125 27.3294C17.5125 27.3294 14.2125 27.3294 10.8125 27.3294C10.8125 28.3291 10.8125 29.3289 10.8125 30.359C10.4871 30.9339 10.4871 30.9339 10.125 31.0532C9.89723 31.0879 9.67356 31.0901 9.44355 31.089C9.37877 31.0894 9.31399 31.0898 9.24724 31.0902C9.11072 31.0906 8.97419 31.0904 8.83767 31.0896C8.6297 31.0887 8.4219 31.0909 8.21394 31.0933C8.08084 31.0934 7.94775 31.0932 7.81465 31.0929C7.75298 31.0938 7.69131 31.0946 7.62778 31.0955C7.22293 31.09 6.92447 31.026 6.62495 30.7377C6.34258 30.3763 6.34114 29.9917 6.35054 29.5483C6.35089 29.4846 6.35124 29.4208 6.35161 29.3552C6.353 29.1533 6.35614 28.9514 6.35933 28.7495C6.36058 28.6119 6.36172 28.4743 6.36274 28.3368C6.36549 28.0009 6.36966 27.6652 6.37495 27.3294C6.30581 27.3318 6.30581 27.3318 6.23527 27.3342C6.17421 27.3355 6.11315 27.3367 6.05024 27.338C5.95983 27.3404 5.95983 27.3404 5.8676 27.3429C5.24972 27.2966 4.73818 26.6839 4.34544 26.2442C4.08735 25.9359 3.88163 25.5984 3.68745 25.2465C3.6624 25.2021 3.63734 25.1577 3.61152 25.1119C3.27236 24.3827 3.53603 23.2305 3.60223 22.4555C3.61325 22.3231 3.62423 22.1907 3.63518 22.0583C3.66479 21.7015 3.69488 21.3448 3.72506 20.988C3.75667 20.6136 3.78784 20.2392 3.81907 19.8647C3.87151 19.2366 3.92424 18.6085 3.97717 17.9804C4.04506 17.1748 4.11249 16.3692 4.17977 15.5636C4.23774 14.8695 4.29589 14.1755 4.35408 13.4814C4.37273 13.2589 4.39137 13.0363 4.41 12.8138C4.43929 12.4642 4.46869 12.1145 4.49818 11.7649C4.50897 11.6368 4.51973 11.5086 4.53045 11.3805C4.54512 11.2053 4.55991 11.0302 4.57473 10.8551C4.57892 10.8046 4.58312 10.7542 4.58744 10.7022C4.61363 10.3947 4.6478 10.0891 4.68745 9.78302C4.62977 9.79831 4.57208 9.81361 4.51265 9.82937C3.96276 9.97274 3.41185 10.0957 2.85328 10.1999C2.80275 10.2096 2.75221 10.2193 2.70015 10.2293C2.63311 10.2417 2.63311 10.2417 2.56471 10.2544C2.37612 10.3041 2.2272 10.3571 2.11323 10.5207C2.04596 10.714 2.02315 10.9054 1.99995 11.1085C2.05425 11.1094 2.10855 11.1103 2.1645 11.1112C2.82648 11.1388 2.82648 11.1388 3.04292 11.3136C3.30669 11.6304 3.32811 11.8853 3.29438 12.2875C3.28936 12.3576 3.28936 12.3576 3.28423 12.4293C3.27705 12.5282 3.26954 12.6271 3.26172 12.726C3.25027 12.8716 3.23985 13.0173 3.22975 13.163C3.21305 13.4009 3.19467 13.6385 3.17543 13.8762C3.16773 13.973 3.16035 14.0698 3.15327 14.1666C3.14277 14.3098 3.13128 14.453 3.11958 14.5961C3.11664 14.6388 3.11371 14.6815 3.11068 14.7254C3.07857 15.0951 2.99093 15.403 2.73433 15.6765C2.37983 15.888 2.00466 15.8455 1.61323 15.7909C1.56961 15.7857 1.52598 15.7804 1.48103 15.775C1.0373 15.7166 1.0373 15.7166 0.874951 15.5897C0.625943 15.2322 0.594886 14.9958 0.631787 14.5668C0.635613 14.5098 0.639439 14.4529 0.64338 14.3942C0.656645 14.2035 0.672023 14.013 0.687451 13.8225C0.697654 13.6835 0.707784 13.5445 0.717847 13.4055C0.745242 13.037 0.776116 12.669 0.808515 12.301C0.821659 12.1491 0.834244 11.9971 0.846295 11.8452C0.864048 11.6216 0.883475 11.3982 0.903272 11.1748C0.910811 11.0741 0.910811 11.0741 0.918504 10.9713C0.974684 10.376 1.15534 9.87635 1.61641 9.48346C2.05958 9.22083 2.58095 9.1226 3.07417 8.99801C3.6384 8.85499 4.19549 8.69871 4.74995 8.52069C4.77633 8.26431 4.80225 8.00789 4.82808 7.75146C4.83637 7.66957 4.84467 7.58768 4.85322 7.50331C4.90724 6.96341 4.95503 6.42321 4.99897 5.88238C5.0096 5.75382 5.02024 5.62526 5.0309 5.4967C5.04677 5.30503 5.06238 5.11337 5.07714 4.92162C5.09109 4.74057 5.10598 4.55963 5.12105 4.37868C5.12495 4.32451 5.12886 4.27034 5.13288 4.21453C5.16532 3.83941 5.23449 3.54605 5.51167 3.27414C7.2423 2.10901 9.8287 2.07439 11.8437 1.91319C11.8915 1.90935 11.9392 1.90551 11.9884 1.90156C13.2426 1.80228 14.4959 1.75394 15.7539 1.7554ZM7.24995 4.60747C7.17848 4.93917 7.15515 5.27946 7.12495 5.61734C7.12025 5.66625 7.11555 5.71517 7.1107 5.76557C7.09715 5.91069 7.08534 6.05584 7.07417 6.20116C7.07009 6.24625 7.06601 6.29133 7.06181 6.33778C7.04941 6.52784 7.04568 6.65988 7.13864 6.82855C7.24017 6.95303 7.24017 6.95303 7.38283 6.97443C7.4606 6.97449 7.4606 6.97449 7.53995 6.97455C7.59986 6.97521 7.65977 6.97587 7.72149 6.97655C7.78745 6.97598 7.85341 6.97542 7.92137 6.97484C7.99133 6.97523 8.06129 6.97563 8.13336 6.97603C8.36902 6.97704 8.60463 6.97624 8.84028 6.97545C9.00873 6.97579 9.17716 6.97623 9.3456 6.97679C9.75635 6.97791 10.1671 6.97767 10.5778 6.97694C10.9116 6.97637 11.2453 6.97629 11.5791 6.97656C11.6265 6.9766 11.674 6.97664 11.7228 6.97668C11.8192 6.97676 11.9156 6.97684 12.012 6.97693C12.9164 6.97765 13.8207 6.97682 14.7251 6.97546C15.5016 6.97433 16.278 6.97453 17.0545 6.97569C17.9556 6.97704 18.8567 6.97758 19.7577 6.9768C19.8538 6.97672 19.9498 6.97664 20.0458 6.97656C20.0931 6.97652 20.1404 6.97649 20.189 6.97645C20.5225 6.97623 20.8559 6.9766 21.1894 6.97719C21.5956 6.9779 22.0018 6.97771 22.408 6.97636C22.6154 6.9757 22.8227 6.97558 23.0301 6.97627C23.2546 6.97696 23.479 6.9761 23.7035 6.97484C23.8025 6.97568 23.8025 6.97568 23.9034 6.97655C23.9633 6.97589 24.0232 6.97523 24.085 6.97455C24.1368 6.97451 24.1887 6.97447 24.2421 6.97443C24.3851 6.95313 24.3851 6.95313 24.4861 6.82648C24.5938 6.63438 24.5741 6.49735 24.5578 6.27858C24.5493 6.15849 24.5493 6.15849 24.5406 6.03598C24.5371 5.99442 24.5336 5.95287 24.5301 5.91005C24.5196 5.78397 24.5108 5.65775 24.502 5.53154C24.4631 4.99478 24.4631 4.99478 24.3125 4.48124C24.1646 4.40657 24.076 4.41009 23.911 4.40983C23.8525 4.40959 23.794 4.40935 23.7338 4.4091C23.6691 4.40915 23.6044 4.4092 23.5378 4.40926C23.4694 4.40907 23.401 4.40889 23.3306 4.40869C23.0999 4.40814 22.8693 4.40805 22.6386 4.40796C22.4739 4.40766 22.3092 4.40735 22.1444 4.40701C21.6958 4.40615 21.2472 4.40577 20.7986 4.40549C20.5187 4.40532 20.2388 4.40505 19.9588 4.40476C19.1843 4.40399 18.4097 4.40334 17.6351 4.40313C17.5607 4.40311 17.5607 4.40311 17.4848 4.40309C17.4351 4.40308 17.3854 4.40306 17.3342 4.40305C17.2334 4.40302 17.1327 4.40299 17.0319 4.40296C16.982 4.40295 16.932 4.40293 16.8805 4.40292C16.0703 4.40267 15.2601 4.40157 14.4499 4.4001C13.6187 4.3986 12.7875 4.39782 11.9563 4.39774C11.4894 4.39768 11.0224 4.39732 10.5555 4.39618C10.158 4.39521 9.76046 4.39488 9.36295 4.3954C9.16001 4.39565 8.95709 4.39548 8.75416 4.3947C8.53445 4.39391 8.31476 4.39427 8.09505 4.39493C8.03051 4.39442 7.96597 4.39391 7.89947 4.39339C7.81151 4.39401 7.81151 4.39401 7.72176 4.39465C7.67102 4.39461 7.62028 4.39457 7.568 4.39454C7.40353 4.42426 7.34942 4.47374 7.24995 4.60747ZM7.01167 8.6982C6.80259 9.00587 6.805 9.31645 6.79028 9.68205C6.78695 9.76203 6.78362 9.84201 6.78018 9.92442C6.77676 10.0123 6.77335 10.1001 6.76994 10.1879C6.76615 10.2811 6.76235 10.3742 6.75852 10.4673C6.74823 10.7197 6.73824 10.972 6.72833 11.2244C6.72002 11.4353 6.71158 11.6463 6.70314 11.8572C6.68323 12.3551 6.66358 12.8529 6.64409 13.3508C6.62399 13.8637 6.60342 14.3766 6.58262 14.8895C6.56476 15.3305 6.54721 15.7715 6.52992 16.2125C6.51959 16.4756 6.50914 16.7387 6.49838 17.0018C6.48827 17.2493 6.47855 17.4969 6.46914 17.7444C6.46563 17.835 6.46198 17.9256 6.45818 18.0161C6.39542 18.7781 6.39542 18.7781 6.60151 19.4911C6.79001 19.6664 6.9415 19.744 7.18745 19.8185C7.57873 19.7878 7.96188 19.7052 8.34706 19.6312C13.303 18.6801 18.192 18.6626 23.5187 19.6775C24.2607 19.8402 24.2607 19.8402 24.9375 19.5661C25.1645 19.359 25.1694 19.1028 25.1875 18.8087C25.1873 18.5003 25.1747 18.1925 25.1621 17.8845C25.1586 17.7913 25.1551 17.6982 25.1517 17.605C25.1422 17.3532 25.1323 17.1014 25.1222 16.8496C25.1138 16.6389 25.1057 16.4283 25.0975 16.2176C25.0783 15.7206 25.0587 15.2235 25.0388 14.7264C25.0183 14.2145 24.9985 13.7025 24.9791 13.1905C24.9623 12.75 24.9451 12.3095 24.9276 11.8691C24.9172 11.6064 24.9069 11.3438 24.897 11.0811C24.8877 10.834 24.8779 10.587 24.8676 10.34C24.864 10.2497 24.8605 10.1593 24.8572 10.0689C24.862 9.31642 24.862 9.31642 24.5861 8.64322C24.5299 8.60014 24.5299 8.60014 24.4726 8.55619C24.4353 8.52633 24.398 8.49647 24.3596 8.46571C24.1679 8.34113 24.0044 8.3234 23.7827 8.32305C23.7251 8.3228 23.6675 8.32256 23.6081 8.32231C23.5447 8.32237 23.4813 8.32242 23.416 8.32248C23.3487 8.32229 23.2815 8.3221 23.2122 8.32191C22.9856 8.32136 22.759 8.32126 22.5325 8.32117C22.3705 8.32088 22.2085 8.32056 22.0465 8.32022C21.6057 8.31936 21.1648 8.31898 20.724 8.31871C20.4487 8.31853 20.1735 8.31826 19.8983 8.31798C19.1363 8.31721 18.3744 8.31656 17.6125 8.31635C17.5637 8.31633 17.5149 8.31632 17.4647 8.3163C17.4158 8.31629 17.3669 8.31628 17.3165 8.31626C17.2175 8.31623 17.1184 8.31621 17.0193 8.31618C16.9456 8.31616 16.9456 8.31616 16.8704 8.31614C16.0741 8.31589 15.2778 8.31478 14.4814 8.31331C13.664 8.31182 12.8466 8.31103 12.0292 8.31096C11.5701 8.3109 11.1111 8.31054 10.6521 8.30939C10.2204 8.30832 9.78874 8.30821 9.35706 8.30877C9.19848 8.30882 9.0399 8.30854 8.88132 8.30792C8.6651 8.30712 8.44891 8.30749 8.23269 8.30815C8.16971 8.30764 8.10673 8.30713 8.04184 8.3066C7.60314 8.30974 7.33184 8.37488 7.01167 8.6982ZM6.52044 21.5658C6.36439 21.8407 6.4081 22.1522 6.41011 22.4615C6.40886 22.5295 6.40761 22.5974 6.40632 22.6674C6.40656 23.0479 6.40883 23.3219 6.68745 23.6055C7.06059 23.8725 7.50415 23.9441 7.94526 24.0276C8.04906 24.0477 8.04906 24.0477 8.15495 24.0682C9.13402 24.2962 9.13402 24.2962 10.0625 24.0473C10.2255 23.718 10.1016 23.1943 10.0156 22.8498C9.8948 22.5129 9.75521 22.2701 9.43745 22.0907C9.1324 21.9825 8.82136 21.9042 8.50776 21.8264C8.42335 21.8047 8.33896 21.7829 8.25459 21.761C8.02417 21.7014 7.79332 21.6436 7.56245 21.5858C7.46438 21.5602 7.36632 21.5347 7.26826 21.5091C6.8665 21.4003 6.8665 21.4003 6.52044 21.5658ZM24.0544 21.5772C24.0073 21.5893 23.9603 21.6015 23.9118 21.614C23.813 21.6397 23.7142 21.6656 23.6154 21.6918C23.4652 21.7316 23.3147 21.7704 23.1641 21.809C23.0676 21.8342 22.9712 21.8595 22.8747 21.8848C22.8302 21.8963 22.7856 21.9077 22.7397 21.9195C22.3174 22.0328 21.9921 22.1531 21.75 22.5325C21.5453 22.9791 21.4608 23.4305 21.5 23.9211C21.5765 24.0879 21.5765 24.0879 21.75 24.1735C22.2598 24.2924 22.7451 24.1932 23.25 24.0947C23.3254 24.0809 23.4008 24.0672 23.4785 24.053C24.3421 23.9245 24.3421 23.9245 25.0625 23.4793C25.2267 23.1349 25.2081 22.8089 25.207 22.4339C25.208 22.3682 25.209 22.3025 25.21 22.2348C25.2101 22.1716 25.2101 22.1083 25.2102 22.0431C25.2103 21.9856 25.2105 21.9282 25.2107 21.8689C25.1817 21.6733 25.1483 21.5904 25 21.4595C24.6707 21.4212 24.3712 21.4928 24.0544 21.5772Z" fill="#4E3629"/>
<path d="M21.7222 16.4394C21.861 16.5299 21.9931 16.6255 22.125 16.7259C22.1791 16.7624 22.2333 16.7988 22.2891 16.8364C22.7892 17.3148 23.1659 18.0065 23.1936 18.7114C23.1929 18.7604 23.1922 18.8095 23.1914 18.86C23.1908 18.9099 23.1903 18.9598 23.1897 19.0112C23.189 19.0485 23.1882 19.0859 23.1875 19.1243C22.4725 19.013 22.4725 19.013 22.1875 18.8719C22.0777 18.7131 22.0581 18.5987 22.0293 18.4086C21.9683 18.059 21.754 17.7799 21.4866 17.5575C20.9802 17.2061 20.4613 17.0306 19.8438 17.1401C19.2068 17.314 18.8291 17.6756 18.5 18.2407C18.4794 18.2824 18.4588 18.324 18.4375 18.3669C18.0869 18.3669 17.7363 18.3669 17.375 18.3669C17.6118 17.5741 17.9728 16.9282 18.6919 16.4801C19.6508 15.9813 20.7604 15.884 21.7222 16.4394Z" fill="black"/>
</svg>
