<svg width="32" height="32" viewBox="0 0 32 32" fill="none" xmlns="http://www.w3.org/2000/svg">
<path d="M8.30311 1.97571C8.37152 1.97537 8.43993 1.97504 8.51041 1.97469C8.73971 1.9738 8.96899 1.97424 9.19829 1.97469C9.36266 1.97433 9.52702 1.9739 9.69139 1.97339C10.0915 1.97231 10.4917 1.97226 10.8918 1.97259C11.2171 1.97284 11.5424 1.97275 11.8677 1.97242C11.914 1.97237 11.9603 1.97232 12.008 1.97228C12.1021 1.97218 12.1961 1.97208 12.2902 1.97199C13.1723 1.97113 14.0544 1.97147 14.9365 1.97219C15.7433 1.97281 16.5501 1.972 17.3568 1.9705C18.1855 1.96898 19.0142 1.96838 19.8428 1.96879C20.308 1.96901 20.7731 1.96887 21.2382 1.96778C21.6756 1.96676 22.1129 1.96706 22.5502 1.96823C22.7108 1.96847 22.8714 1.96827 23.0319 1.96762C23.251 1.96679 23.47 1.96751 23.6891 1.96862C23.7527 1.96802 23.8164 1.96742 23.8819 1.9668C24.2669 1.9708 24.4992 2.02096 24.8126 2.24994C24.9989 2.52284 25.0231 2.74301 25.0213 3.06912C25.0214 3.11185 25.0214 3.15458 25.0214 3.1986C25.0213 3.33862 25.0198 3.47859 25.0184 3.61859C25.018 3.71615 25.0178 3.8137 25.0176 3.91125C25.0169 4.1671 25.015 4.42293 25.0129 4.67877C25.011 4.94021 25.0102 5.20164 25.0092 5.46308C25.0072 5.97537 25.004 6.48766 25.0001 6.99994C25.0591 6.99798 25.0591 6.99798 25.1193 6.99597C25.2996 6.99074 25.4799 6.98751 25.6602 6.98432C25.7221 6.98222 25.784 6.98013 25.8478 6.97797C26.2466 6.97267 26.4958 6.99857 26.8126 7.24994C27.0716 7.61262 27.0256 8.01688 27.0226 8.44355C27.0227 8.52792 27.0229 8.61228 27.0231 8.69665C27.0235 8.92812 27.0228 9.15957 27.0218 9.39103C27.021 9.64077 27.0213 9.89051 27.0214 10.1402C27.0215 10.5728 27.0209 11.0054 27.0199 11.438C27.0184 12.0634 27.0179 12.6888 27.0176 13.3142C27.0172 14.3289 27.016 15.3437 27.0142 16.3584C27.0125 17.344 27.0112 18.3297 27.0104 19.3154C27.0103 19.3762 27.0103 19.4369 27.0102 19.4995C27.01 19.8044 27.0097 20.1092 27.0095 20.414C27.0076 22.9426 27.0043 25.4713 27.0001 27.9999C27.0697 27.9986 27.1394 27.9973 27.2111 27.996C27.471 27.9914 27.7308 27.9886 27.9907 27.9862C28.1029 27.985 28.2152 27.9833 28.3273 27.9811C28.4892 27.978 28.651 27.9766 28.8128 27.9755C28.8625 27.9742 28.9122 27.9729 28.9634 27.9716C29.3178 27.9715 29.5208 28.0466 29.8126 28.2499C30.0665 28.5776 30.0473 28.9787 30.0001 29.3749C29.9217 29.6272 29.808 29.7774 29.5783 29.9163C29.3592 30.0065 29.21 30.0231 28.9741 30.0225C28.8947 30.0227 28.8153 30.023 28.7335 30.0233C28.6463 30.0226 28.5591 30.0219 28.4719 30.0212C28.3795 30.0212 28.2871 30.0212 28.1946 30.0213C27.9444 30.0214 27.6942 30.0203 27.444 30.019C27.1822 30.0178 26.9205 30.0177 26.6587 30.0174C26.1633 30.0169 25.668 30.0153 25.1726 30.0134C24.6085 30.0113 24.0444 30.0103 23.4803 30.0094C22.3202 30.0074 21.1602 30.0041 20.0001 29.9999C19.9998 29.9388 19.9998 29.9388 19.9994 29.8764C19.9944 28.8831 19.9886 27.8899 19.9821 26.8966C19.979 26.4163 19.9761 25.936 19.9737 25.4556C19.9716 25.0368 19.9691 24.618 19.9661 24.1992C19.9646 23.9776 19.9632 23.756 19.9624 23.5344C19.9614 23.2866 19.9595 23.0388 19.9575 22.7911C19.9574 22.7181 19.9572 22.6451 19.9571 22.5698C19.9544 21.9074 19.9544 21.9074 19.6797 21.3203C19.3001 21.0396 18.855 21.0441 18.4005 21.0463C18.3427 21.046 18.2849 21.0458 18.2253 21.0456C18.0357 21.0451 17.846 21.0454 17.6563 21.0458C17.5237 21.0458 17.3911 21.0456 17.2585 21.0455C16.9811 21.0453 16.7037 21.0456 16.4263 21.0461C16.0716 21.0469 15.7169 21.0464 15.3621 21.0457C15.0885 21.0452 14.8148 21.0454 14.5411 21.0457C14.4104 21.0458 14.2796 21.0457 14.1488 21.0454C13.9658 21.0451 13.7827 21.0456 13.5997 21.0463C13.5461 21.046 13.4926 21.0458 13.4375 21.0455C13.0332 21.0483 12.6551 21.0728 12.3204 21.3203C12.0028 21.7498 12.0436 22.2793 12.0426 22.7911C12.042 22.8692 12.0414 22.9473 12.0407 23.0278C12.0391 23.2405 12.0381 23.4533 12.0373 23.6661C12.0363 23.889 12.0346 24.1118 12.033 24.3347C12.0301 24.7561 12.0278 25.1776 12.0257 25.599C12.0233 26.0791 12.0202 26.5591 12.0171 27.0392C12.0107 28.0261 12.0051 29.013 12.0001 29.9999C10.7853 30.0058 9.57048 30.0102 8.35568 30.0129C7.79162 30.0142 7.22756 30.0159 6.6635 30.0188C6.1718 30.0213 5.68011 30.0229 5.18841 30.0235C4.92811 30.0238 4.66782 30.0246 4.40753 30.0264C4.16237 30.0281 3.91723 30.0286 3.67206 30.0282C3.58224 30.0283 3.49242 30.0288 3.40261 30.0297C2.55567 30.0384 2.55567 30.0384 2.18756 29.7499C1.92036 29.4138 1.95379 28.9711 2.00006 28.5624C2.14403 28.2413 2.30359 28.1292 2.62506 27.9999C2.811 27.9759 2.99399 27.978 3.18121 27.9816C3.2334 27.9819 3.28558 27.9822 3.33935 27.9824C3.50492 27.9835 3.67044 27.9858 3.836 27.9882C3.94871 27.9892 4.06142 27.99 4.17413 27.9908C4.44946 27.9928 4.72475 27.9961 5.00006 27.9999C4.99997 27.9568 4.99987 27.9137 4.99977 27.8693C4.99418 25.3156 4.98989 22.7619 4.98729 20.2082C4.98698 19.9017 4.98666 19.5952 4.98633 19.2887C4.98626 19.2277 4.9862 19.1667 4.98613 19.1038C4.98504 18.1153 4.98307 17.1267 4.98077 16.1382C4.97844 15.1242 4.97705 14.1101 4.97654 13.0961C4.97619 12.4702 4.97511 11.8443 4.97308 11.2184C4.97176 10.7894 4.97136 10.3604 4.97168 9.93141C4.97185 9.68377 4.9716 9.43614 4.97026 9.1885C4.96904 8.9618 4.96898 8.73512 4.96984 8.50841C4.96999 8.38753 4.96891 8.26664 4.96779 8.14576C4.97055 7.74738 4.97323 7.48597 5.25006 7.18744C5.58428 6.94218 5.9393 6.97824 6.336 6.98822C6.43183 6.98949 6.43183 6.98949 6.5296 6.99079C6.68646 6.99298 6.84324 6.99606 7.00006 6.99994C6.99951 6.94518 6.99895 6.89042 6.99838 6.834C6.99336 6.31722 6.98956 5.80044 6.98711 5.28364C6.9858 5.01796 6.98404 4.7523 6.9812 4.48664C6.97848 4.23011 6.97699 3.97361 6.97634 3.71708C6.97588 3.61935 6.97498 3.52162 6.97363 3.4239C6.97181 3.2867 6.97156 3.14957 6.97168 3.01236C6.97112 2.93436 6.97057 2.85636 6.97 2.776C7.00674 2.51502 7.07899 2.38701 7.25006 2.18744C7.59092 1.96005 7.90802 1.97338 8.30311 1.97571ZM11.2501 5.31244C10.9141 5.75264 10.9884 6.32839 10.9885 6.85526C10.9883 6.99131 10.9872 7.12733 10.986 7.26337C10.9718 8.00429 10.9718 8.00429 11.2422 8.67963C11.4758 8.91317 11.6646 8.95671 11.9922 8.96088C12.3164 8.95496 12.5074 8.91767 12.7501 8.68744C13.086 8.24724 13.0117 7.6715 13.0116 7.14463C13.0118 7.00858 13.0129 6.87256 13.0141 6.73651C13.0283 5.99559 13.0283 5.99559 12.7579 5.32025C12.5243 5.08671 12.3356 5.04317 12.0079 5.039C11.6837 5.04493 11.4927 5.08222 11.2501 5.31244ZM15.2501 5.31244C14.9141 5.75264 14.9884 6.32839 14.9885 6.85526C14.9883 6.99131 14.9872 7.12733 14.986 7.26337C14.9718 8.00429 14.9718 8.00429 15.2422 8.67963C15.4758 8.91317 15.6646 8.95671 15.9922 8.96088C16.3164 8.95496 16.5074 8.91767 16.7501 8.68744C17.086 8.24724 17.0117 7.6715 17.0116 7.14463C17.0118 7.00858 17.0129 6.87256 17.0141 6.73651C17.0283 5.99559 17.0283 5.99559 16.7579 5.32025C16.5243 5.08671 16.3356 5.04317 16.0079 5.039C15.6837 5.04493 15.4927 5.08222 15.2501 5.31244ZM19.2501 5.31244C18.9141 5.75264 18.9884 6.32839 18.9885 6.85526C18.9883 6.99131 18.9872 7.12733 18.986 7.26337C18.9718 8.00429 18.9718 8.00429 19.2422 8.67963C19.4758 8.91317 19.6646 8.95671 19.9922 8.96088C20.3164 8.95496 20.5074 8.91767 20.7501 8.68744C21.086 8.24724 21.0117 7.6715 21.0116 7.14463C21.0118 7.00858 21.0129 6.87256 21.0141 6.73651C21.0283 5.99559 21.0283 5.99559 20.7579 5.32025C20.5243 5.08671 20.3356 5.04317 20.0079 5.039C19.6837 5.04493 19.4927 5.08222 19.2501 5.31244ZM9.25006 10.3124C8.91412 10.7526 8.98842 11.3284 8.98848 11.8553C8.98834 11.9913 8.98721 12.1273 8.98602 12.2634C8.97182 13.0043 8.97182 13.0043 9.24225 13.6796C9.47579 13.9132 9.66455 13.9567 9.99225 13.9609C10.3164 13.955 10.5074 13.9177 10.7501 13.6874C11.086 13.2472 11.0117 12.6715 11.0116 12.1446C11.0118 12.0086 11.0129 11.8726 11.0141 11.7365C11.0283 10.9956 11.0283 10.9956 10.7579 10.3203C10.5243 10.0867 10.3356 10.0432 10.0079 10.039C9.68371 10.0449 9.49273 10.0822 9.25006 10.3124ZM13.2501 10.3124C12.9141 10.7526 12.9884 11.3284 12.9885 11.8553C12.9883 11.9913 12.9872 12.1273 12.986 12.2634C12.9718 13.0043 12.9718 13.0043 13.2422 13.6796C13.4758 13.9132 13.6646 13.9567 13.9922 13.9609C14.3164 13.955 14.5074 13.9177 14.7501 13.6874C15.086 13.2472 15.0117 12.6715 15.0116 12.1446C15.0118 12.0086 15.0129 11.8726 15.0141 11.7365C15.0283 10.9956 15.0283 10.9956 14.7579 10.3203C14.5243 10.0867 14.3356 10.0432 14.0079 10.039C13.6837 10.0449 13.4927 10.0822 13.2501 10.3124ZM17.2501 10.3124C16.9141 10.7526 16.9884 11.3284 16.9885 11.8553C16.9883 11.9913 16.9872 12.1273 16.986 12.2634C16.9718 13.0043 16.9718 13.0043 17.2422 13.6796C17.4758 13.9132 17.6646 13.9567 17.9922 13.9609C18.3164 13.955 18.5074 13.9177 18.7501 13.6874C19.086 13.2472 19.0117 12.6715 19.0116 12.1446C19.0118 12.0086 19.0129 11.8726 19.0141 11.7365C19.0283 10.9956 19.0283 10.9956 18.7579 10.3203C18.5243 10.0867 18.3356 10.0432 18.0079 10.039C17.6837 10.0449 17.4927 10.0822 17.2501 10.3124ZM21.2501 10.3124C20.9141 10.7526 20.9884 11.3284 20.9885 11.8553C20.9883 11.9913 20.9872 12.1273 20.986 12.2634C20.9718 13.0043 20.9718 13.0043 21.2422 13.6796C21.4758 13.9132 21.6646 13.9567 21.9922 13.9609C22.3164 13.955 22.5074 13.9177 22.7501 13.6874C23.086 13.2472 23.0117 12.6715 23.0116 12.1446C23.0118 12.0086 23.0129 11.8726 23.0141 11.7365C23.0283 10.9956 23.0283 10.9956 22.7579 10.3203C22.5243 10.0867 22.3356 10.0432 22.0079 10.039C21.6837 10.0449 21.4927 10.0822 21.2501 10.3124ZM9.25006 16.3124C8.91412 16.7526 8.98842 17.3284 8.98848 17.8553C8.98834 17.9913 8.98721 18.1273 8.98602 18.2634C8.97182 19.0043 8.97182 19.0043 9.24225 19.6796C9.47579 19.9132 9.66455 19.9567 9.99225 19.9609C10.3164 19.955 10.5074 19.9177 10.7501 19.6874C11.086 19.2472 11.0117 18.6715 11.0116 18.1446C11.0118 18.0086 11.0129 17.8726 11.0141 17.7365C11.0283 16.9956 11.0283 16.9956 10.7579 16.3203C10.5243 16.0867 10.3356 16.0432 10.0079 16.039C9.68371 16.0449 9.49273 16.0822 9.25006 16.3124ZM13.2501 16.3124C12.9141 16.7526 12.9884 17.3284 12.9885 17.8553C12.9883 17.9913 12.9872 18.1273 12.986 18.2634C12.9718 19.0043 12.9718 19.0043 13.2422 19.6796C13.4758 19.9132 13.6646 19.9567 13.9922 19.9609C14.3164 19.955 14.5074 19.9177 14.7501 19.6874C15.086 19.2472 15.0117 18.6715 15.0116 18.1446C15.0118 18.0086 15.0129 17.8726 15.0141 17.7365C15.0283 16.9956 15.0283 16.9956 14.7579 16.3203C14.5243 16.0867 14.3356 16.0432 14.0079 16.039C13.6837 16.0449 13.4927 16.0822 13.2501 16.3124ZM17.2501 16.3124C16.9141 16.7526 16.9884 17.3284 16.9885 17.8553C16.9883 17.9913 16.9872 18.1273 16.986 18.2634C16.9718 19.0043 16.9718 19.0043 17.2422 19.6796C17.4758 19.9132 17.6646 19.9567 17.9922 19.9609C18.3164 19.955 18.5074 19.9177 18.7501 19.6874C19.086 19.2472 19.0117 18.6715 19.0116 18.1446C19.0118 18.0086 19.0129 17.8726 19.0141 17.7365C19.0283 16.9956 19.0283 16.9956 18.7579 16.3203C18.5243 16.0867 18.3356 16.0432 18.0079 16.039C17.6837 16.0449 17.4927 16.0822 17.2501 16.3124ZM21.2501 16.3124C20.9141 16.7526 20.9884 17.3284 20.9885 17.8553C20.9883 17.9913 20.9872 18.1273 20.986 18.2634C20.9718 19.0043 20.9718 19.0043 21.2422 19.6796C21.4758 19.9132 21.6646 19.9567 21.9922 19.9609C22.3164 19.955 22.5074 19.9177 22.7501 19.6874C23.086 19.2472 23.0117 18.6715 23.0116 18.1446C23.0118 18.0086 23.0129 17.8726 23.0141 17.7365C23.0283 16.9956 23.0283 16.9956 22.7579 16.3203C22.5243 16.0867 22.3356 16.0432 22.0079 16.039C21.6837 16.0449 21.4927 16.0822 21.2501 16.3124ZM8.25006 22.3124C7.91412 22.7526 7.98842 23.3284 7.98848 23.8553C7.98834 23.9913 7.98721 24.1273 7.98602 24.2634C7.97182 25.0043 7.97182 25.0043 8.24225 25.6796C8.47579 25.9132 8.66455 25.9567 8.99225 25.9609C9.31641 25.955 9.50739 25.9177 9.75006 25.6874C10.086 25.2472 10.0117 24.6715 10.0116 24.1446C10.0118 24.0086 10.0129 23.8726 10.0141 23.7365C10.0283 22.9956 10.0283 22.9956 9.75787 22.3203C9.52433 22.0867 9.33557 22.0432 9.00787 22.039C8.68371 22.0449 8.49273 22.0822 8.25006 22.3124ZM22.2501 22.3124C21.9141 22.7526 21.9884 23.3284 21.9885 23.8553C21.9883 23.9913 21.9872 24.1273 21.986 24.2634C21.9718 25.0043 21.9718 25.0043 22.2422 25.6796C22.4758 25.9132 22.6646 25.9567 22.9922 25.9609C23.3164 25.955 23.5074 25.9177 23.7501 25.6874C24.086 25.2472 24.0117 24.6715 24.0116 24.1446C24.0118 24.0086 24.0129 23.8726 24.0141 23.7365C24.0283 22.9956 24.0283 22.9956 23.7579 22.3203C23.5243 22.0867 23.3356 22.0432 23.0079 22.039C22.6837 22.0449 22.4927 22.0822 22.2501 22.3124Z" fill="#4E3629"/>
<path d="M14 23C15.32 23 16.64 23 18 23C18 25.31 18 27.62 18 30C16.68 30 15.36 30 14 30C14 27.69 14 25.38 14 23Z" fill="#4E3629"/>
</svg>
