<svg width="32" height="32" viewBox="0 0 32 32" fill="none" xmlns="http://www.w3.org/2000/svg">
<path d="M21.4611 9.87363C22.9769 11.3568 23.726 13.3651 23.7656 15.4726C23.7249 17.3842 23.1014 19.0942 21.875 20.5624C21.8428 20.6023 21.8107 20.6422 21.7775 20.6833C21.0791 21.5331 20.1167 22.1169 19.125 22.5624C19.0582 22.5926 18.9915 22.6229 18.9228 22.654C18.175 22.9662 17.3115 23.1575 16.5 23.1874C16.4295 23.1907 16.3591 23.1939 16.2866 23.1972C15.2964 23.221 14.3325 23.08 13.3967 22.7553C13.0141 22.6253 13.0141 22.6253 12.6277 22.6942C12.5643 22.7296 12.501 22.765 12.4357 22.8014C12.3305 22.8593 12.3305 22.8593 12.2232 22.9183C12.1501 22.9598 12.077 23.0013 12.0039 23.0429C11.8956 23.1028 11.8956 23.1028 11.7852 23.1639C11.4995 23.3224 11.2157 23.4828 10.936 23.6515C10.6781 23.7879 10.4719 23.8055 10.1875 23.7499C9.99794 23.6125 9.94892 23.5343 9.87495 23.3124C9.84346 22.945 9.89571 22.634 9.99043 22.2795C10.0015 22.2371 10.0125 22.1946 10.0238 22.151C10.07 21.9736 10.1163 21.7965 10.168 21.6207C10.2533 21.3266 10.3179 21.0576 10.3125 20.7499C10.1681 20.4897 9.9705 20.3208 9.74995 20.1249C9.62029 19.9584 9.51068 19.7825 9.4023 19.6015C9.37365 19.5538 9.345 19.5062 9.31549 19.4571C8.68278 18.3707 8.2928 17.136 8.24995 15.8749C8.24746 15.8094 8.24496 15.7439 8.24239 15.6764C8.20343 13.6533 8.84809 11.6728 10.2524 10.1919C10.3346 10.1068 10.4173 10.0221 10.5 9.93743C10.5623 9.86927 10.5623 9.86927 10.6259 9.79973C11.8961 8.44418 13.8835 7.7808 15.6982 7.69158C17.8648 7.654 19.8853 8.37589 21.4611 9.87363ZM10.9375 14.5624C10.6509 14.9413 10.6271 15.351 10.6875 15.8124C10.7975 16.2017 11.0401 16.4689 11.375 16.6874C11.7198 16.8673 12.049 16.9376 12.4355 16.8456C12.8133 16.7236 13.1148 16.5206 13.3327 16.185C13.5356 15.782 13.5856 15.3921 13.447 14.9596C13.2768 14.575 13.0572 14.3264 12.6875 14.1249C12.0299 13.8797 11.4044 14.0314 10.9375 14.5624ZM18.8125 14.4999C18.5464 14.8955 18.4098 15.2741 18.5 15.7499C18.6494 16.2134 18.8896 16.5109 19.3125 16.7499C19.7 16.9239 20.0393 16.9175 20.4375 16.7812C20.8208 16.617 21.0783 16.3492 21.2602 15.9755C21.3812 15.5977 21.3784 15.1534 21.2148 14.789C20.9728 14.3819 20.6422 14.1569 20.1909 14.0292C19.7 13.9172 19.136 14.1091 18.8125 14.4999ZM14.9209 14.495C14.6524 14.8167 14.5375 15.1606 14.5664 15.5781C14.6444 16.0716 14.8763 16.3459 15.246 16.6679C15.5553 16.8647 15.8881 16.9282 16.25 16.8749C16.7388 16.7237 17.0822 16.4604 17.3251 16.0004C17.4696 15.6364 17.4739 15.2951 17.3476 14.9257C17.1745 14.5487 16.916 14.2925 16.5388 14.1191C15.9224 13.8997 15.3913 14.0471 14.9209 14.495Z" fill="#4E3629"/>
<path d="M23.8126 7.43746C23.8713 7.49289 23.93 7.54832 23.9905 7.60543C25.1774 8.7539 26.5008 10.6274 26.6876 12.3125C26.7649 12.3086 26.8422 12.3047 26.9219 12.3007C27.705 12.3056 28.3437 12.6105 28.918 13.1328C29.8974 14.185 30.2118 15.6798 30.1968 17.0752C30.1408 18.5082 29.73 19.9219 28.7501 21C28.7016 21.0592 28.7016 21.0592 28.6522 21.1196C28.2689 21.5557 27.6036 21.8999 27.0228 21.9524C26.4228 21.9669 25.8874 21.8417 25.3126 21.6875C25.2754 21.7374 25.2383 21.7874 25.2 21.8388C24.8524 22.3014 24.4886 22.7387 24.0886 23.1572C24.0296 23.219 23.971 23.281 23.9127 23.3434C22.6228 24.7222 20.7904 25.8353 18.9376 26.25C18.8551 26.25 18.7726 26.25 18.6876 26.25C18.6934 26.3582 18.6934 26.3582 18.6993 26.4687C18.6969 26.8094 18.6309 27.0971 18.4056 27.3603C17.9592 27.7736 17.4725 27.7693 16.8912 27.7688C16.821 27.769 16.7508 27.7693 16.6785 27.7696C16.5305 27.7699 16.3824 27.77 16.2344 27.7697C16.0091 27.7695 15.7838 27.771 15.5584 27.7725C15.4141 27.7727 15.2698 27.7727 15.1255 27.7727C15.0253 27.7735 15.0253 27.7735 14.9231 27.7744C14.4802 27.7717 14.0436 27.7382 13.68 27.4616C13.6393 27.4091 13.6393 27.4091 13.5977 27.3554C13.5694 27.3209 13.5412 27.2863 13.512 27.2507C13.2304 26.7752 13.2497 26.1847 13.3394 25.6535C13.441 25.3293 13.6534 25.1107 13.9376 24.9375C14.28 24.7908 14.598 24.795 14.9637 24.7954C15.0938 24.7941 15.2239 24.7928 15.3539 24.7915C15.5566 24.7901 15.7592 24.789 15.9618 24.7887C16.8382 24.786 17.6522 24.7297 18.5001 24.5C18.5628 24.483 18.6255 24.466 18.69 24.4485C18.8371 24.405 18.9809 24.357 19.1251 24.3046C19.176 24.2864 19.2269 24.2681 19.2794 24.2493C21.359 23.4739 23.0758 21.9831 24.1719 20.0625C24.1932 20.0255 24.2145 19.9886 24.2364 19.9505C24.3071 19.8228 24.3723 19.693 24.4376 19.5625C24.4816 19.4823 24.4816 19.4823 24.5265 19.4005C24.9013 18.6447 24.9844 17.813 25.1063 16.9872C25.1373 16.782 25.1712 16.5773 25.2044 16.3724C25.3416 15.4912 25.4168 14.6917 25.2501 13.8125C25.2387 13.7492 25.2273 13.6859 25.2155 13.6207C25.1851 13.4704 25.1496 13.3236 25.1094 13.1757C25.0959 13.1242 25.0823 13.0726 25.0684 13.0195C24.656 11.4989 23.9224 10.1673 22.8282 9.03267C22.6876 8.87496 22.6876 8.87496 22.6212 8.73677C22.544 8.58955 22.4616 8.56826 22.3126 8.49996C22.2312 8.42919 22.152 8.35598 22.0743 8.28121C20.2742 6.65496 17.7634 5.94602 15.3751 6.06246C13.2816 6.22361 11.4154 7.04227 9.81256 8.37496C9.76293 8.41564 9.7133 8.45633 9.66217 8.49825C9.36916 8.74561 9.11707 9.0154 8.87506 9.31246C8.80255 9.40128 8.80255 9.40128 8.72858 9.4919C7.92771 10.4924 7.34557 11.6025 6.98053 12.832C6.96613 12.8792 6.95174 12.9264 6.9369 12.9751C6.88839 13.1491 6.84945 13.3231 6.81256 13.5C6.80319 13.5442 6.79381 13.5885 6.78415 13.6342C6.59837 14.5512 6.65485 15.3487 6.80865 16.2656C6.82944 16.3987 6.85003 16.5318 6.87042 16.6649C6.91217 16.9357 6.95489 17.2064 6.99856 17.4769C7.08808 18.0318 7.17321 18.5872 7.25626 19.1431C7.28069 19.3045 7.30619 19.4656 7.33183 19.6268C7.50928 20.7725 7.50928 20.7725 7.2774 21.2734C6.81905 21.767 6.00976 21.8877 5.36285 21.9597C4.57789 21.9832 3.90646 21.6541 3.3399 21.125C2.39066 20.122 1.86435 18.6848 1.81256 17.3125C1.80934 17.2496 1.80611 17.1868 1.80279 17.122C1.76195 15.6449 2.13579 14.238 3.15948 13.143C3.66249 12.6729 4.30923 12.2995 5.00787 12.2968C5.10949 12.3008 5.2111 12.3055 5.31256 12.3125C5.31852 12.2521 5.32448 12.1918 5.33063 12.1296C5.56385 10.5201 6.77773 8.89025 7.87506 7.74996C7.90476 7.71865 7.93446 7.68734 7.96506 7.65508C9.93965 5.58086 12.7338 4.33697 15.6003 4.25222C18.7216 4.20515 21.5559 5.2781 23.8126 7.43746Z" fill="#4E3629"/>
</svg>
