<svg width="32" height="32" viewBox="0 0 32 32" fill="none" xmlns="http://www.w3.org/2000/svg">
<path d="M15.0626 2.99998C15.0626 3.04123 15.0626 3.08248 15.0626 3.12498C14.2172 3.48188 13.3564 3.69742 12.4622 3.89036C12.4166 3.90044 12.3711 3.91052 12.3241 3.9209C12.1987 3.94858 12.0732 3.97543 11.9476 4.00223C11.7583 4.05998 11.6733 4.08887 11.5626 4.24998C11.5377 4.44913 11.5248 4.5701 11.6407 4.73826C11.82 4.8599 11.9522 4.88138 12.1675 4.85261C12.2306 4.83856 12.2936 4.82451 12.3585 4.81003C12.4288 4.79452 12.499 4.77901 12.5714 4.76302C12.6458 4.74583 12.7203 4.72863 12.797 4.71091C12.8731 4.6936 12.9492 4.67628 13.0276 4.65844C14.1691 4.39376 15.476 4.07006 16.401 3.31418C16.5964 3.16101 16.8054 3.05334 17.0275 2.94529C17.0935 2.91293 17.0935 2.91293 17.1609 2.87992C17.2945 2.81505 17.4284 2.75109 17.5626 2.68748C17.6739 2.63454 17.6739 2.63454 17.7875 2.58054C19.3343 1.88081 21.3574 1.73242 23.0001 2.18748C23.0448 2.19956 23.0894 2.21165 23.1354 2.2241C24.2511 2.53419 25.13 3.04795 25.9376 3.87498C26.0008 3.93733 26.0008 3.93733 26.0653 4.00095C27.0434 5.03055 27.4889 6.51535 27.7501 7.87498C27.7604 7.92625 27.7706 7.97752 27.7811 8.03034C28.0629 9.49899 28.1084 11.2307 27.7501 12.6875C27.7384 12.7373 27.7266 12.7871 27.7145 12.8385C27.4902 13.7657 27.1303 14.6276 26.7501 15.5C26.6595 15.7084 26.5691 15.917 26.4794 16.1258C26.4229 16.2571 26.366 16.3882 26.3083 16.5191C25.8889 17.4927 25.6368 18.4718 25.4707 19.5164C25.4202 19.8326 25.3663 20.1482 25.3126 20.4638C25.302 20.5263 25.2914 20.5888 25.2805 20.6531C24.7994 23.469 24.0979 26.698 22.3126 29C22.2851 29.0372 22.2575 29.0744 22.2291 29.1128C21.8922 29.5492 21.372 29.9228 20.8282 30.0356C20.2635 30.1047 19.7076 30.0367 19.2267 29.7148C18.4878 29.0909 18.3213 28.0394 18.2323 27.1305C18.1965 26.6749 18.1809 26.2217 18.1744 25.7649C18.1735 25.7046 18.1726 25.6444 18.1717 25.5823C18.1681 25.3323 18.1647 25.0823 18.1625 24.8323C18.1485 23.3582 18.0728 21.6178 17.0118 20.4726C16.7033 20.1859 16.3873 20.0327 15.9728 19.9648C15.4881 20.0413 15.0958 20.2739 14.7911 20.6577C14.3854 21.2644 14.1401 21.9094 14.0001 22.625C13.9892 22.6793 13.9783 22.7336 13.9671 22.7896C13.8525 23.4329 13.8493 24.0752 13.84 24.7265C13.8006 27.1149 13.8006 27.1149 13.672 27.8398C13.664 27.8857 13.6559 27.9316 13.6476 27.9789C13.5051 28.7312 13.2106 29.2561 12.6525 29.7734C12.2128 30.0665 11.6054 30.1165 11.09 30.0312C10.1838 29.781 9.57351 28.9928 9.12024 28.2168C7.5769 25.4312 6.94049 22.2252 6.43664 19.1103C6.23713 17.8969 5.82308 16.8175 5.32517 15.6983C4.66559 14.2145 4.06544 12.6996 4.04773 11.0534C4.04712 11.006 4.0465 10.9586 4.04587 10.9097C4.02032 8.4098 4.32032 5.73826 6.10828 3.83152C8.44546 1.45813 12.2746 1.51093 15.0626 2.99998Z" fill="#4E3629"/>
</svg>
